<svg width="95" height="64" viewBox="0 0 95 64" fill="none" xmlns="http://www.w3.org/2000/svg">
<path d="M31.7351 63.4703C25.4585 63.4703 19.3228 61.609 14.104 58.1219C8.88517 54.6348 4.81769 49.6785 2.41573 43.8797C0.0137729 38.0808 -0.614719 31.7 0.609788 25.5439C1.8343 19.3879 4.85674 13.7332 9.29498 9.295C13.7332 4.85676 19.3879 1.83431 25.5439 0.609807C31.6999 -0.614701 38.0808 0.0137204 43.8797 2.41568C49.6785 4.81764 54.6348 8.88526 58.1219 14.1041C61.609 19.3229 63.4703 25.4585 63.4703 31.7351C63.4611 40.149 60.1146 48.2156 54.1651 54.1651C48.2156 60.1146 40.149 63.4611 31.7351 63.4703ZM31.7351 14.9287C28.4106 14.9264 25.1602 15.9102 22.3949 17.7555C19.6295 19.6008 17.4735 22.2248 16.1997 25.2956C14.9259 28.3663 14.5914 31.7459 15.2386 35.0068C15.8857 38.2677 17.4855 41.2634 19.8355 43.615C22.1854 45.9665 25.18 47.5683 28.4405 48.2178C31.7009 48.8672 35.0808 48.535 38.1524 47.2634C41.2241 45.9917 43.8496 43.8376 45.6968 41.0735C47.544 38.3095 48.5299 35.0596 48.5299 31.7351C48.5238 27.2817 46.7528 23.0123 43.6048 19.8621C40.4568 16.712 36.1886 14.9379 31.7351 14.9287Z" fill="#C9FF1F"/>
<path d="M94.9989 32.084C95.0264 36.1727 94.2336 40.2261 92.6664 44.009C91.0992 47.7918 88.7888 51.2289 85.8694 54.1206C82.95 57.0123 79.4795 59.3012 75.6596 60.8543C71.8396 62.4075 67.7462 63.194 63.6168 63.1683L63.3174 0.726074C71.7002 0.782793 79.7235 4.10443 85.6522 9.97261C91.5809 15.8408 94.9386 23.7838 94.9989 32.084Z" fill="#006252"/>
</svg>
