<svg width="294" height="90" viewBox="0 0 294 90" fill="none" xmlns="http://www.w3.org/2000/svg">
<path d="M17.3192 48.866H10.7764V71.2309H0V0H10.7764V39.0784H17.3914L31.5474 18.8057H44.3324L26.5682 43.9722L46.2206 71.2309H33.0388L17.3192 48.866Z" fill="#C9FF1F"/>
<path d="M74.4362 72.517C58.3919 72.517 46.3887 60.7815 46.3887 45.0179C46.3887 29.2543 58.4159 17.5308 74.4362 17.5308C90.4564 17.5308 102.484 29.2302 102.484 45.0179C102.484 60.8055 90.4564 72.517 74.4362 72.517ZM91.5028 45.0179C91.5028 34.9777 84.3707 27.8235 74.4362 27.8235C64.5017 27.8235 57.3695 35.0379 57.3695 45.0179C57.3695 54.9979 64.5137 62.2245 74.4362 62.2245C84.3586 62.2245 91.5028 55.0099 91.5028 45.0179Z" fill="#C9FF1F"/>
<path d="M159.458 18.769L135.403 72.1562C129.486 85.3827 124.266 89.9999 113.574 89.9999H108.246V80.2965H112.744C119.684 80.2965 121.812 78.2644 125.649 69.8715L126.852 67.4667L104 18.8292H115.727L132.396 55.3945L148.032 18.8292L159.458 18.769Z" fill="#C9FF1F"/>
<path d="M238.535 18.8059L220.987 71.231H212.243L198.725 39.307L185.278 71.231H176.535L158.963 18.8059H170.088L181.923 54.1328L196.981 19.371H200.457L215.719 54.3973L227.747 18.8059H238.535Z" fill="#C9FF1F"/>
<path d="M293.944 45.1501C293.932 46.3314 293.86 47.5114 293.728 48.6853H251.152C252.499 57.1863 258.62 62.4049 267.208 62.4049C270.033 62.5092 272.835 61.8521 275.319 60.5025C277.803 59.1528 279.878 57.1603 281.328 54.7335H292.621C290.785 59.9964 287.336 64.5471 282.766 67.7394C278.195 70.9317 272.735 72.6033 267.16 72.517C251.825 72.517 240.219 60.6853 240.219 45.0179C240.219 29.3505 251.801 17.5308 267.16 17.5308C283.216 17.5308 293.908 29.8916 293.908 45.1862L293.944 45.1501ZM267.208 27.2584C259.101 27.2584 253.196 32.1521 251.428 39.9317H283.144C281.208 31.9597 275.206 27.2584 267.208 27.2584Z" fill="#C9FF1F"/>
<path d="M93.8594 31.9604L121.498 46.5217" stroke="#C9FF1F" stroke-width="8.81758" stroke-miterlimit="10"/>
<path d="M243.647 44.6575L221.529 55.9481" stroke="#C9FF1F" stroke-width="8.81758" stroke-miterlimit="10"/>
</svg>
